<svg width="192" height="192" viewBox="0 0 192 192" fill="none" xmlns="http://www.w3.org/2000/svg">
<path d="M87.5371 174C62.4743 174 47.9029 171.059 40.52 164.197C33.9143 158.12 31 149.885 31 138.514C31 132.24 33.5257 127.143 38.3829 124.202C44.2114 120.673 66.7486 117.34 82.2914 116.164L92.3943 115.38L92.5886 113.811L72.7714 113.223C63.8343 113.027 50.4286 111.851 46.1543 111.263C40.52 110.478 37.9943 107.342 37.9943 103.028C37.9943 98.127 39.16 93.6178 42.2686 88.3243C43.4343 86.3638 45.1829 84.9914 47.7086 84.0111C50.4286 83.0308 59.56 81.8545 77.4343 80.6782V79.1097C57.8114 78.7176 48.8743 75.9729 45.3771 72.836C42.2686 69.8952 40.9086 64.4057 40.9086 56.3674C40.9086 44.4081 43.4343 36.566 50.4286 29.9001C57.8114 22.8422 73.16 20.8816 95.1143 20.8816C116.097 20.8816 127.366 22.8422 132.417 27.5475C136.109 30.8804 137.857 34.6054 137.857 41.0752H139.606L140.771 28.3317C141.16 23.4303 142.131 18.725 144.269 16.9605C146.017 15.3921 148.543 15 152.817 15C158.84 15 162.92 16.3724 164.669 19.1171C166.417 21.8619 167 25.3909 167 29.312C167 35.5857 165.446 37.9383 161.754 37.9383C159.811 37.9383 156.509 36.9581 153.983 36.9581C149.709 36.9581 147.766 40.0949 146.794 46.7608C144.851 60.0925 142.52 71.2676 135.72 77.1492C131.64 80.6782 126.2 81.8545 118.429 82.8348L71.4114 88.5204C66.7486 89.1085 63.8343 90.4809 63.8343 94.402C63.8343 97.5389 66.36 98.5191 69.8571 98.7152C74.52 98.9112 108.52 99.8915 125.229 100.676C138.246 101.264 144.851 102.44 150.097 107.146C153.4 110.086 154.76 115.184 154.76 122.83C154.76 139.887 150.097 152.826 139.411 162.237C129.697 170.667 113.766 174 87.5371 174ZM61.1143 144.592C60.92 149.885 62.28 155.179 65 157.924C69.08 162.041 77.6286 164.197 92.0057 164.197C107.354 164.197 116.097 162.237 120.371 158.512C123.869 155.375 126.006 150.866 126.783 145.18C127.949 137.142 127.56 131.064 124.84 126.947C122.897 124.006 118.817 121.654 108.131 121.654C93.1714 121.654 75.4914 126.163 67.5257 131.064C64.0286 133.221 61.3086 137.534 61.1143 144.592ZM72.3829 54.9951C72.3829 62.053 73.3543 66.5623 76.4629 69.307C79.7657 72.2478 84.2343 73.8163 92.5886 73.8163C101.331 73.8163 105.8 72.4439 108.326 70.0912C110.851 67.7386 112.017 63.2293 112.017 54.0148C112.017 44.016 110.657 38.3305 107.937 35.5857C105.217 32.8409 100.36 31.4686 93.7543 31.4686C86.76 31.4686 81.9029 32.6449 78.6 35.5857C74.3257 39.3107 72.3829 45.7805 72.3829 54.9951Z" fill="#9999A3"/>
</svg>
