<svg xmlns="http://www.w3.org/2000/svg" width="219" height="27" fill="none"><path fill="#000" d="M54.65 13.28h7.196v9.081h-.002a18.795 18.795 0 0 1-8.169 1.76c-6.566 0-11.406-4.588-11.406-10.871a10.906 10.906 0 0 1 3.3-7.93 11.67 11.67 0 0 1 8.2-3.195c2.514 0 4.274.408 7.636 1.823V7.06h-.001v.001a15.974 15.974 0 0 0-7.697-2.105 8.281 8.281 0 0 0-5.877 2.356 8.134 8.134 0 0 0-2.387 5.843c0 4.777 3.584 8.137 8.672 8.137a15.064 15.064 0 0 0 4.65-.848v-4.398h-4.116v-2.764h.001v-.001Zm46.735 10.557h-.001v.002h-3.142l-2.859-6.314h-9.11l-2.7 6.312-.002.002h-4.95l-2.829-4.398c-2.828-4.4-4.13-4.915-5.701-4.915h-1.288l.015 9.311h-.001v.002h-3.08V2.41h.002V2.41h5.405c4.335 0 7.038 2.294 7.038 6a5.31 5.31 0 0 1-2.057 4.392 6.33 6.33 0 0 1-1.525.855c1.946 1.288 3.143 3.268 4.776 5.939.617 1 1.067 1.661 1.748 2.614l8.51-19.925.001-.002h2.168l9.582 21.554ZM90.67 7l-3.202 7.758h6.659L90.67 6.999ZM68.53 5.05l-.014 6.735h1.98a4.552 4.552 0 0 0 3.36-1.078 3.253 3.253 0 0 0 .863-2.42c-.032-2.012-1.227-3.237-4.212-3.237h-1.977Zm48.616 3.518a5.638 5.638 0 0 1-1.337 3.818c-1.16 1.317-3.098 2.14-5.891 2.14h-3.204v9.312h-.002l-3.08.001V2.409h6.696c4.681 0 6.818 2.764 6.818 6.159Zm-10.432-3.393v6.61h3.487c.99.05 1.965-.259 2.746-.87a3.14 3.14 0 0 0 1.025-2.472c0-1.57-.849-3.269-3.646-3.269h-3.612Zm28.206-2.764h-.002v9.374h-12V2.409h-3.078v.002h-.001v21.428h3.078v-.001h.001l-.018-9.313h12.002l.016 9.314h3.08v-.001h.001V2.409h-3.08l.001.002Zm7.35-.195h-.002v21.428h3.08v-.002h.002V2.215h-3.08v.001Zm9.788 5.221a2.246 2.246 0 0 1 .955-1.837 4.075 4.075 0 0 1 2.439-.706 7.197 7.197 0 0 1 5.027 2.231v-.003l.002.002V3.635a8.575 8.575 0 0 0-4.778-1.508 7.356 7.356 0 0 0-4.276 1.2 5.304 5.304 0 0 0-2.228 4.52c0 5.875 9.267 6.378 9.267 10.807a2.486 2.486 0 0 1-.848 1.8c-.037.034-.086.061-.126.094a3.04 3.04 0 0 1-.359.268 4.108 4.108 0 0 1-2.152.54 7.238 7.238 0 0 1-5.655-3.111v.003l-.001-.002v3.896a9.447 9.447 0 0 0 5.998 1.98 6.094 6.094 0 0 0 4.298-1.646 5.691 5.691 0 0 0 1.706-4.169c0-6.818-9.269-6.754-9.269-10.87Zm34.089 5.687a10.824 10.824 0 0 1-3.863 8.391 11.88 11.88 0 0 1-7.73 2.607c-7.007 0-11.437-5.184-11.437-10.997a10.856 10.856 0 0 1 3.147-7.726 11.59 11.59 0 0 1 8.353-3.272c7.069 0 11.53 5.027 11.53 10.997Zm-6.711 6.643a7.966 7.966 0 0 0 3.353-6.642 8.018 8.018 0 0 0-5.148-7.644 8.024 8.024 0 0 0-3.207-.525 8.392 8.392 0 0 0-5.953 2.316 8.068 8.068 0 0 0-2.372 5.852 8.048 8.048 0 0 0 2.407 5.875 8.04 8.04 0 0 0 5.919 2.294 8.618 8.618 0 0 0 5.001-1.526Zm38.589-17.359h-29.062v.002h-.002v21.429h3.082v-9.314h8.356v-.001h.001v-2.74h-8.357v-6.61h15.488V23.84h3.081V5.174h7.411v-.002h.002V2.408ZM23.944 8.707a2.177 2.177 0 1 0 0-4.353 2.177 2.177 0 0 0 0 4.353ZM26.12 13.06a2.177 2.177 0 0 0-4.353 0h-.006a8.7 8.7 0 1 1-8.7-8.7v-.007a2.177 2.177 0 0 0 0-4.353 13.06 13.06 0 1 0 13.06 13.06Z"/></svg>