<svg xmlns="http://www.w3.org/2000/svg" width="134" height="38" fill="none"><path fill="#000" d="m48.55 36.35 7.687-34.383h9.473l-4.13 18.288 7.653-9.17h10.592L70.32 22.55l3.919 13.8h-9.453L60.88 23.274l-3.094 13.075h-9.237ZM14.34 19.066l6.676 17.282h9.079L37.92 1.966l-9.351.001-3.958 17.49-6.55-17.5H8.578L.85 36.349h9.535c1.082-5.51 2.53-11.33 3.957-17.282Zm29.672 17.282 5.671-25.25H40.38l-5.67 25.25h9.304ZM40.856 5.567c0 .793.188 3.594 5.28 3.594 4.23 0 5.861-2.69 5.861-4.7 0-1.352-1.113-3.699-5.282-3.699-3.84 0-5.86 2.549-5.86 4.805Zm89.499 5.191c-3.979-1.176-8.909.776-11.342 4.12.236-1.037.489-2.242.775-3.63h-9.443l-5.526 25.101h9.397l3.135-14.237c.576-2.62 2.698-3.74 4.578-3.257.811.217 1.925.825 1.556 3.008l-3.189 14.486h9.286l4.256-19.332c.902-4.26-2.623-6.003-3.483-6.258ZM98.758 34.072c4.08-3.311 6.097-8.91 6.032-14.177-.069-5.063-4.388-9.866-11.903-9.866-14.325 0-16.409 11.084-16.823 13.107-1.049 5.117.118 11.76 6.847 13.52 4.44 1.163 11.382 1.037 15.847-2.584ZM88.25 19.438c.673-1.842 2.506-2.25 3.335-2.258 2.053-.017 2.615 1.191 2.437 2.33-.495 3.157-1.596 7.163-2.003 8.44-.005.017-.008.033-.013.047-.448 1.394-1.771 2.206-3.33 2.206-1.577 0-2.53-.984-2.395-2.24.232-2.118 1.583-7.473 1.968-8.525Z"/></svg>