<svg xmlns="http://www.w3.org/2000/svg" width="93" height="38" fill="none"><path fill="#000" d="M92.81 11.822c.104-.179-.005-.313-.233-.313-1.185 0-2.737.005-3.967.005-.292 0-.446.035-.585.308-.456.872-6.003 9.187-7.035 10.798-.173.248-.386.213-.411-.07-.104-.957-.932-2.062-2.236-2.588-.992-.401-1.968-.476-2.975-.342-1.824.243-3.45 1.21-4.878 2.29-2.152 1.637-4.01 3.759-6.41 5.33-1.31.853-3.104 1.597-4.304.486-1.086-1.006-.962-3.242.7-4.972.173-.184.386-.03.351.133-.158.784.035 1.562.63 2.107.724.65 1.76.724 2.647.288 1.046-.52 1.661-1.522 1.845-2.657.277-1.765-1.081-3.322-2.782-3.446-1.383-.099-2.706.382-3.996 1.448-.644.535-1.016.932-1.571 1.73-.134.193-.347.213-.337-.074.064-2.261-.868-3.53-2.737-3.575-1.448-.035-3 .754-4.204 1.716-1.324 1.06-2.479 2.473-3.718 3.797-.154.164-.288.154-.333-.163-.04-1.498-.411-2.945-1.105-3.977-.243-.357-.759-.535-1.195-.292-.198.109-.897.431-1.403.838-.253.208-.347.506-.238.892.67 2.236.52 4.78-.387 6.926-.833 1.968-2.454 3.743-4.357 4.343-1.255.397-2.559.203-3.367-.907-1.105-1.532-.66-4.204.992-6.416 1.457-1.948 3.564-3.187 5.666-3.985.248-.095.298-.253.228-.466-.113-.348-.297-.819-.371-1.032-.194-.51-.734-.595-1.394-.525-1.526.178-2.905.699-4.268 1.428-3.565 1.908-5.35 5.602-6.133 7.58-.377.952-.699 1.542-1.115 2.067-.56.704-1.27 1.349-2.559 2.484a.447.447 0 0 0-.104.52c.134.273.804 1.22.992 1.305.208.104.456-.04.55-.11.903-.61 1.983-1.581 2.514-2.24.183-.224.377-.13.476.213.496 1.76 1.785 3.197 3.57 3.797 3.267 1.101 6.658-.495 9.216-3.272 1.626-1.765 2.21-2.9 2.836-3.673 1.056-1.31 3.138-4.24 5.622-6.118.912-.694 1.988-1.22 2.528-.873.436.283.575.937-.124 2.206-2.528 4.621-6.252 10.05-6.936 11.368-.124.229-.015.407.223.407 1.324-.005 2.638-.005 3.838-.005.198-.01.287-.1.391-.243 1.944-3.039 3.768-5.934 5.727-8.924.109-.178.208-.04.213.04.04.694.213 1.646.624 2.266.74 1.15 1.79 1.646 2.955 1.655.927.01 1.393-.128 2.395-.5a8.328 8.328 0 0 0 1.963-1.056c.293-.203.342.139.337.188-.451 2.415.104 5.27 2.504 6.46 2.87 1.413 6.023-.575 7.838-2.37.178-.173.367-.153.387.218.04.685.347 1.498.917 2.068 1.522 1.527 4.586.922 7.665-1.463 1.978-1.527 4.045-3.683 5.914-5.964.07-.09.119-.228-.015-.372-.282-.297-.694-.64-.977-.902-.128-.11-.317-.08-.426.005-1.913 1.82-3.639 3.897-6.133 5.617-.837.585-2.181 1.061-2.78.248-.234-.317-.21-.754.024-1.329.719-1.814 12.226-19.325 12.82-20.361ZM77.604 26.507c.025.133.199.262.372.327.06.02.094.064.025.208-.49 1.046-.937 1.651-1.552 2.563-.565.843-1.2 1.497-1.968 2.127-1.16.962-2.771 2.003-4.105 1.304-.59-.307-.848-1.135-.838-1.805.03-1.884.868-3.822 2.415-5.72 1.888-2.326 3.976-3.53 5.344-2.871 1.418.674.967 2.315.332 3.604a.356.356 0 0 0-.025.263Z"/><path fill="#000" d="M9.377 36.477c-4.288.03-8.066-2.618-8.497-7.209-.243-2.543.476-4.809 1.919-6.673 1.274-1.66 3.435-3.044 5.265-3.381.595-.11 1.393-.04 1.725.352.52.605.367 1.264-.149 1.532-1.393.714-3.074 1.934-3.902 3.594-.674 1.359-.808 3 .219 4.556 1.72 2.603 6.524 2.673 10.986-1.477 1.105-1.016 2.092-1.988 3.098-3.143 1.969-2.246 2.618-3.069 5.236-6.693.03-.04.04-.1.025-.124-.02-.045-.06-.06-.134-.064-1.745.05-3.267.57-4.745 1.675-.426.313-1.036.268-1.309-.143-.297-.462-.084-1.066.407-1.404 2.38-1.655 4.977-1.953 7.63-2.4 0 0 .183.01.337-.192 1.09-1.399 1.914-2.658 3.074-4.07 1.17-1.434 2.682-2.752 3.837-3.739 1.611-1.388 2.642-1.854 3.694-2.424.277-.144-.035-.317-.12-.317C32.11 3.631 26.017 2.204 20.19 4.36c-4.03 1.507-5.8 4.705-4.948 6.841.605 1.517 2.598 1.76 4.467.848a10.062 10.062 0 0 0 4.001-3.56c.57-.872 1.77-.242 1.12 1.275-1.705 4.005-4.962 7.183-8.928 7.317-3.376.11-5.553-2.375-5.548-5.438.015-6.044 6.743-10.02 13.807-10.62C32.674.32 40.735 2.586 49.188 3.612c6.475.783 12.687.803 19.191-.694.769-.169 1.31.322 1.26 1.1-.065 1.126-.932 2.207-3.08 3.377-2.438 1.338-4.987 1.74-7.654 1.765-6.44.054-12.444-2.46-18.65-3.808.01.273.078.595-.15.769-3.435 2.538-6.544 5.116-8.626 8.735-.07.085-.03.164.09.154 1.809-.094 3.435-.144 5.12-.278.293-.025.308-.099.278-.312-.148-1.25.213-2.667 1.314-3.649 1.12-1.006 2.528-1.12 3.46-.397 1.061.828.967 2.31.387 3.426-.59 1.13-1.562 1.735-2.498 2.028 0 0-.194.045-.17.223.04.288 1.315.992 1.424 1.18.104.178.05.456-.144.67a.804.804 0 0 1-.615.292c-.218-.005-.352-.08-.63-.233-.57-.313-1.283-.818-1.764-1.418-.164-.204-.243-.208-.65-.184-1.824.104-4.675.382-6.604.62-.465.06-.535.144-.634.307-3.079 5.072-6.36 10.546-9.965 14.204-3.867 3.927-7.085 4.963-10.5 4.988Zm29.32-22.543c.05.263.15.312.268.288.585-.12 1.23-.6 1.606-1.156.348-.505.511-1.239.164-1.532-.307-.262-.803-.188-1.175.14-.734.649-.962 1.576-.863 2.26Z"/></svg>