<svg xmlns="http://www.w3.org/2000/svg" width="56" height="55" fill="none"><path fill="#000" d="M28.021 0c14.931 0 27.035 12.104 27.035 27.035 0 14.931-12.104 27.036-27.035 27.036C13.09 54.071.985 41.967.985 27.035.985 12.104 13.09 0 28.02 0Zm9.573 2.535c-5.592.02-11.75 2.41-16.259 6.137-4.614 3.815-8.221 10.262-8.2 16.953.032 10.118 7.714 16.419 15.096 16.395 9.114-.032 14.507-7.525 14.484-14.348-.022-6.824-3.737-11.768-11.919-13.76a2.798 2.798 0 0 1-.032-.437c-.017-5.162 3.874-9.713 8.764-10.727-.461-.156-1.214-.213-1.934-.213Z"/></svg>