<svg xmlns="http://www.w3.org/2000/svg" width="41" height="50" fill="none"><g fill="#000" clip-path="url(#a)"><path d="M33.252 49.333v-3.417h-2.304c-3.974 0-5.798-2.408-5.798-5.952V4.155h.683c7.443 0 12.169 5.035 12.169 12.439v.663h2.83V.74H.879v16.518H3.71v-.663c0-7.404 4.726-12.439 12.169-12.439h.683v35.809c0 3.544-1.824 5.952-5.798 5.952H8.46v3.417h24.792Z"/><path d="M40.832 32.814h-9.5v-9.719h9.5v9.719ZM10.38 32.814H.877v-9.719h9.501v9.719Z"/></g><defs><clipPath id="a"><path fill="#fff" d="M.878.739h39.955v48.594H.878z"/></clipPath></defs></svg>