<svg xmlns="http://www.w3.org/2000/svg" width="153" height="26" fill="none"><path fill="#000" d="M126.596 19.469h-.118l-5.016-17.933h-8.093v22.607h5.361l-.302-18.551h.118l5.387 18.551h7.764V1.535h-5.396l.295 17.934ZM23.64 1.535l-4.037 22.846h5.89L28.48 3.644h.124l2.906 20.739h5.857L33.347 1.535H23.64Zm32.952.003L53.9 19.005h-.122l-2.68-17.467h-8.893L41.72 24.38h5.453l.136-20.543h.124l3.642 20.543h5.53L60.25 3.844l.122-.006.142 20.543h5.454l-.481-22.843h-8.894ZM6.093 7.412A3.053 3.053 0 0 1 6.07 6.22c.157-.734.629-1.538 1.994-1.538 1.28 0 2.024.83 2.024 2.068v1.412h5.445V6.567c0-4.984-4.266-5.761-7.355-5.761-3.876 0-7.041 1.349-7.624 5.076a8.188 8.188 0 0 0 .053 3.075c.947 4.67 8.693 6.022 9.817 8.975.212.55.143 1.264.04 1.696-.177.747-.667 1.525-2.123 1.525-1.362 0-2.193-.818-2.193-2.065l-.003-2.216H.298l-.003 1.766c0 5.096 3.827 6.628 7.926 6.628 3.95 0 7.189-1.4 7.713-5.213.266-1.978.07-3.275-.024-3.759-.924-4.785-9.195-6.2-9.817-8.882Zm70.947.054a2.958 2.958 0 0 1-.026-1.172c.152-.73.62-1.524 1.973-1.524 1.264 0 2.006.817 2.006 2.04v1.4h5.387V6.63c0-4.922-4.227-5.698-7.276-5.698-3.843 0-6.98 1.32-7.55 5.023-.16.997-.185 1.908.05 3.048.938 4.62 8.607 5.962 9.723 8.883.203.55.142 1.252.042 1.68-.177.754-.668 1.508-2.103 1.508-1.355 0-2.171-.806-2.171-2.039l-.004-2.2h-5.795v1.75c0 5.044 3.793 6.558 7.852 6.558 3.902 0 7.113-1.387 7.627-5.16.264-1.952.07-3.238-.023-3.72-.914-4.734-9.106-6.141-9.712-8.797Zm24.73 10.965c.004.29-.005.626-.051.87-.108.57-.575 1.645-2.091 1.645-1.511 0-1.983-1.076-2.091-1.644a4.924 4.924 0 0 1-.055-.871V1.533H91.97v16.374c-.008.424.032 1.281.051 1.51.375 4.258 3.596 5.634 7.606 5.634 4.005 0 7.225-1.376 7.612-5.634.019-.229.061-1.087.055-1.51V1.533h-5.525v16.898h.001Zm43.39-6.894v3.346h2.233v3.313c.007.288-.004.606-.051.868-.097.615-.653 1.653-2.226 1.653-1.577 0-2.131-1.04-2.233-1.653a5.1 5.1 0 0 1-.049-.868V7.744c0-.372.023-.778.089-1.072.116-.563.586-1.659 2.171-1.659 1.668 0 2.081 1.157 2.18 1.659.064.317.068.863.068.86V8.82h5.496v-.763c-.002 0 .02-.78-.044-1.493-.404-4.297-3.792-5.65-7.654-5.65-3.864 0-7.173 1.364-7.652 5.65-.047.369-.096 1.087-.096 1.493l-.002 9.612c.002.43.015.749.076 1.51.359 4.159 3.81 5.65 7.669 5.65 3.862 0 7.313-1.491 7.674-5.65.06-.762.068-1.08.069-1.51v-6.13h-7.718Z"/></svg>